<svg width="18" height="18" viewBox="0 0 18 18" fill="none" xmlns="http://www.w3.org/2000/svg">
<path d="M9 1.49986C9.19891 1.49986 9.38968 1.57888 9.53033 1.71953C9.67098 1.86019 9.75 2.05095 9.75 2.24986V4.49986C9.75 4.69878 9.67098 4.88954 9.53033 5.03019C9.38968 5.17085 9.19891 5.24986 9 5.24986C8.80109 5.24986 8.61032 5.17085 8.46967 5.03019C8.32902 4.88954 8.25 4.69878 8.25 4.49986V2.24986C8.25 2.05095 8.32902 1.86019 8.46967 1.71953C8.61032 1.57888 8.80109 1.49986 9 1.49986V1.49986ZM9 12.7499C9.19891 12.7499 9.38968 12.8289 9.53033 12.9695C9.67098 13.1102 9.75 13.301 9.75 13.4999V15.7499C9.75 15.9488 9.67098 16.1395 9.53033 16.2802C9.38968 16.4208 9.19891 16.4999 9 16.4999C8.80109 16.4999 8.61032 16.4208 8.46967 16.2802C8.32902 16.1395 8.25 15.9488 8.25 15.7499V13.4999C8.25 13.301 8.32902 13.1102 8.46967 12.9695C8.61032 12.8289 8.80109 12.7499 9 12.7499V12.7499ZM16.5 8.99986C16.5 9.19878 16.421 9.38954 16.2803 9.53019C16.1397 9.67085 15.9489 9.74986 15.75 9.74986H13.5C13.3011 9.74986 13.1103 9.67085 12.9697 9.53019C12.829 9.38954 12.75 9.19878 12.75 8.99986C12.75 8.80095 12.829 8.61019 12.9697 8.46953C13.1103 8.32888 13.3011 8.24986 13.5 8.24986H15.75C15.9489 8.24986 16.1397 8.32888 16.2803 8.46953C16.421 8.61019 16.5 8.80095 16.5 8.99986ZM5.25 8.99986C5.25 9.19878 5.17098 9.38954 5.03033 9.53019C4.88968 9.67085 4.69891 9.74986 4.5 9.74986H2.25C2.05109 9.74986 1.86032 9.67085 1.71967 9.53019C1.57902 9.38954 1.5 9.19878 1.5 8.99986C1.5 8.80095 1.57902 8.61019 1.71967 8.46953C1.86032 8.32888 2.05109 8.24986 2.25 8.24986H4.5C4.69891 8.24986 4.88968 8.32888 5.03033 8.46953C5.17098 8.61019 5.25 8.80095 5.25 8.99986ZM14.3032 14.3031C14.1626 14.4437 13.9719 14.5227 13.773 14.5227C13.5741 14.5227 13.3834 14.4437 13.2427 14.3031L11.652 12.7124C11.5154 12.5709 11.4398 12.3815 11.4415 12.1848C11.4432 11.9882 11.5221 11.8001 11.6611 11.661C11.8002 11.5219 11.9883 11.4431 12.1849 11.4414C12.3816 11.4396 12.571 11.5152 12.7125 11.6519L14.3032 13.2419C14.373 13.3115 14.4283 13.3942 14.466 13.4853C14.5038 13.5763 14.5232 13.6739 14.5232 13.7725C14.5232 13.8711 14.5038 13.9686 14.466 14.0597C14.4283 14.1507 14.373 14.2335 14.3032 14.3031V14.3031ZM6.348 6.34786C6.20735 6.48847 6.01662 6.56745 5.81775 6.56745C5.61888 6.56745 5.42815 6.48847 5.2875 6.34786L3.6975 4.75786C3.55677 4.61723 3.47767 4.42646 3.4776 4.2275C3.47753 4.02855 3.55649 3.83772 3.69712 3.69699C3.83776 3.55626 4.02853 3.47716 4.22748 3.47709C4.42644 3.47702 4.61727 3.55598 4.758 3.69661L6.348 5.28736C6.4886 5.42801 6.56759 5.61874 6.56759 5.81761C6.56759 6.01649 6.4886 6.20722 6.348 6.34786V6.34786ZM3.6975 14.3031C3.5569 14.1625 3.47791 13.9717 3.47791 13.7729C3.47791 13.574 3.5569 13.3833 3.6975 13.2426L5.28825 11.6519C5.35743 11.5802 5.44019 11.5231 5.5317 11.4838C5.6232 11.4445 5.72161 11.4238 5.8212 11.4229C5.92078 11.4221 6.01954 11.441 6.11172 11.4787C6.20389 11.5165 6.28763 11.5721 6.35805 11.6426C6.42847 11.713 6.48416 11.7967 6.52187 11.8889C6.55958 11.9811 6.57855 12.0798 6.57769 12.1794C6.57682 12.279 6.55613 12.3774 6.51683 12.4689C6.47752 12.5604 6.42038 12.6432 6.34875 12.7124L4.75875 14.3031C4.68909 14.3728 4.60638 14.4282 4.51533 14.4659C4.42428 14.5037 4.32669 14.5231 4.22812 14.5231C4.12956 14.5231 4.03197 14.5037 3.94092 14.4659C3.84987 14.4282 3.76715 14.3728 3.6975 14.3031V14.3031ZM11.652 6.34786C11.5114 6.20722 11.4324 6.01649 11.4324 5.81761C11.4324 5.61874 11.5114 5.42801 11.652 5.28736L13.242 3.69661C13.3826 3.55588 13.5734 3.47678 13.7724 3.47671C13.9713 3.47664 14.1621 3.55561 14.3029 3.69624C14.4436 3.83687 14.5227 4.02765 14.5228 4.2266C14.5228 4.42555 14.4439 4.61638 14.3032 4.75711L12.7125 6.34786C12.5719 6.48847 12.3811 6.56745 12.1822 6.56745C11.9834 6.56745 11.7926 6.48847 11.652 6.34786V6.34786Z" fill="white"/>
</svg>
