<svg version="1.2" xmlns="http://www.w3.org/2000/svg" viewBox="0 0 2192 409" width="2192" height="409">
	<title>Solana (SOL)-svg</title>
	<defs>
		<linearGradient id="g1" x1="474.3" y1="-49.1" x2="186.1" y2="503" gradientUnits="userSpaceOnUse">
			<stop offset="0" stop-color="#00ffa3"/>
			<stop offset="1" stop-color="#dc1fff"/>
		</linearGradient>
		<linearGradient id="g2" x1="348.3" y1="-114.9" x2="60.1" y2="437.2" gradientUnits="userSpaceOnUse">
			<stop offset="0" stop-color="#00ffa3"/>
			<stop offset="1" stop-color="#dc1fff"/>
		</linearGradient>
		<linearGradient id="g3" x1="410.9" y1="-82.2" x2="122.7" y2="469.8" gradientUnits="userSpaceOnUse">
			<stop offset="0" stop-color="#00ffa3"/>
			<stop offset="1" stop-color="#dc1fff"/>
		</linearGradient>
	</defs>
	<style>
		.s0 { fill: #000000 } 
		.s1 { fill: url(#g1) } 
		.s2 { fill: url(#g2) } 
		.s3 { fill: url(#g3) } 
	</style>
	<path id="Layer" class="s0" d="m742.3 224q-0.8 0-1.5 0c-33 0-59.8-26.9-59.8-60.1 0-33.2 26.8-60.1 59.8-60.1 0.5 0 1.1 0 1.6 0h125.5c5.9 0 8.8 7.4 4.4 11.4l-27.9 25.9c-1.2 1.1-2.8 1.7-4.4 1.7h-99.3c-11.6 0-21 9.4-21 21.1 0 11.6 9.4 21.1 21 21.1h88.8c0.1 0 0.1 0 0.1 0.1 0 0.1 0.1 0.1 0.1 0.1 30.8 2.5 54.9 28.4 54.9 59.9 0 33.2-26.8 60.1-59.8 60.1-1.7 0-3.2-0.1-4.8-0.2 0 0-0.1 0-0.1 0.1 0 0.1-0.1 0.1-0.1 0.1h-124.5c-6 0-8.8-7.5-4.2-11.5l30-25.9c1.1-1 2.6-1.6 4.2-1.6h99.5c11.6 0 21-9.5 21-21.1 0-11.6-9.4-21.1-21-21.1h-82.5z"/>
	<path id="Layer" class="s0" d="m1247.7 103.7c3.6 0 6.5 3 6.5 6.6v155c0 3.7 2.9 6.6 6.5 6.6h131.8c5.8 0 8.7 6.8 4.8 11l-18.9 20.3c-1.3 1.3-3 2.1-4.8 2.1h-151c-3.6 0-6.5-3-6.5-6.6v-188.4c0-3.7 2.9-6.6 6.5-6.6z"/>
	<path id="Layer" fill-rule="evenodd" class="s0" d="m980.8 103.8h137.1c19.3 0.8 34.8 16.4 35.6 35.7 0 0.5 0 127.7 0 128.2 0 20-15.9 36.4-35.7 37.3h-137c-19.9-0.8-35.7-17.2-35.7-37.3 0-0.5 0-127.8 0-128.3 0.9-19.3 16.4-34.8 35.7-35.7-0.1 0.1 0 0.1 0 0zm25.5 35.7c-12.1 0.5-21.8 10.3-22.3 22.5 0 0.3 0 80.4 0 80.7 0 12.6 9.9 23 22.3 23.5h85.9c12.4-0.5 22.3-10.9 22.3-23.5 0-0.3 0-0.7 0-1v-79.7c-0.5-12.2-10.2-21.9-22.3-22.5z"/>
	<path id="Layer" fill-rule="evenodd" class="s0" d="m1617.1 298.7v-64.8c0-3.7-2.9-6.6-6.5-6.6h-115.4c-3.6 0-6.5 3-6.5 6.6v64.9c0 3.7-2.9 6.6-6.5 6.6h-25.6c-3.6 0-6.5-3-6.5-6.6 0-0.5 0-157 0-157.5 0-20.7 16.5-37.4 36.9-37.4 0.5 0 132.6 0 133.1 0 19.6 0.8 35.3 17.2 35.3 37.3 0 0.5 0 157 0 157.5 0 3.7-2.9 6.6-6.5 6.6h-25.6c-3.6 0-6.5-3-6.5-6.6zm-122.2-100.7h115.4c3.6 0 6.5-3 6.5-6.6v-32.4c0-12.6-10.1-22.8-22.5-22.8h-83.4c-12.4 0-22.5 10.2-22.5 22.8v32.4c0 3.7 2.9 6.6 6.5 6.6z"/>
	<path id="Layer" fill-rule="evenodd" class="s0" d="m2157.3 305.3c-3.6 0-6.5-2.9-6.5-6.6v-64.9c0-3.6-2.9-6.6-6.5-6.6h-116.7c-3.6 0-6.5 2.9-6.5 6.6v64.9c0 3.6-2.9 6.6-6.5 6.6h-25.8c-3.6 0-6.5-2.9-6.5-6.6 0-0.5 0-157 0-157.5 0-20.6 16.7-37.4 37.3-37.4 0.5 0 1.1 0 1.6 0h133c19.8 0.9 35.7 17.3 35.7 37.3 0 0.5 0 1.1 0 1.6v155.9c0 3.6-2.9 6.6-6.5 6.6h-26.1zm-136.3-146.3v32.4c0 3.6 2.9 6.6 6.5 6.6h116.7c3.6 0 6.5-2.9 6.5-6.6v-32.4c0-12.6-10.2-22.8-22.7-22.8h-84.3c-12.5 0-22.7 10.2-22.7 22.8z"/>
	<path id="Layer" class="s0" d="m1751.7 103.7c1.9 0 3.7 0.8 4.9 2.3l114.8 136.9c3.9 4.6 11.4 1.8 11.4-4.3v-128.3c0-3.6 2.9-6.6 6.5-6.6h25.6c3.6 0 6.5 2.9 6.5 6.6v188.4c0 3.6-2.9 6.6-6.5 6.6h-31.8c-0.1 0-0.2-0.1-0.2-0.2 0-0.1 0-0.1-0.1-0.2l-116.8-135.9c-3.9-4.6-11.4-1.7-11.4 4.3v125.5c0 3.6-2.9 6.6-6.5 6.6h-25.8c-3.6 0-6.5-2.9-6.5-6.6v-188.5c0-3.6 2.9-6.6 6.5-6.6z"/>
	<path id="Layer" class="s1" d="m85.6 312.2c3.2-3.2 7.5-5 12-5h416.5c7.6 0 11.4 9.2 6 14.5l-82.3 82.2c-3.2 3.2-7.5 5-12 5h-416.4c-7.6 0-11.4-9.2-6-14.5z"/>
	<path id="Layer" class="s2" d="m85.6 5c3.2-3.2 7.5-5 12-5h416.5c7.6 0 11.4 9.2 6 14.5l-82.3 82.2c-3.2 3.2-7.5 5-12 5h-416.4c-7.6 0-11.4-9.2-6-14.5z"/>
	<path id="Layer" class="s3" d="m520.2 239.8c5.4 5.3 1.6 14.5-6 14.5h-416.5c-4.5 0-8.8-1.8-12-5l-82.3-82.2c-5.4-5.3-1.6-14.5 6-14.5h416.4c4.5 0 8.8 1.8 12 5z"/>
</svg>