<svg width="128" height="128" viewBox="0 0 128 128" fill="none" xmlns="http://www.w3.org/2000/svg">
  <circle cx="63.9996" cy="63.9996" r="50.5173" stroke="#EDB119" stroke-width="0.3" />
  <circle cx="64" cy="64" r="63.8512" stroke="#EDB119" stroke-opacity="0.4" stroke-width="0.29768" />
  <circle cx="63.8317" cy="63.8288" r="37.8293" fill="#EDB119" />
  <path
    d="M65.1089 52.4983L77.2808 73.5812C77.3929 73.7754 77.452 73.9958 77.452 74.22C77.452 74.4443 77.3929 74.6647 77.2808 74.8589C77.1686 75.0532 77.0074 75.2145 76.8131 75.3266C76.6189 75.4388 76.3985 75.4978 76.1742 75.4978H51.8305C51.6062 75.4978 51.3859 75.4388 51.1917 75.3266C50.9974 75.2145 50.8361 75.0532 50.724 74.8589C50.6118 74.6647 50.5528 74.4443 50.5528 74.22C50.5528 73.9958 50.6118 73.7754 50.724 73.5812L62.8959 52.4983C63.008 52.304 63.1693 52.1428 63.3635 52.0306C63.5578 51.9185 63.7781 51.8595 64.0024 51.8595C64.2267 51.8595 64.447 51.9185 64.6412 52.0306C64.8355 52.1428 64.9968 52.304 65.1089 52.4983V52.4983ZM62.7246 69.109V71.6645H65.2801V69.109H62.7246ZM62.7246 60.1648V66.5535H65.2801V60.1648H62.7246Z"
    fill="white" />
</svg>